<svg aria-hidden="true" style="position: absolute; width: 0; height: 0; overflow: hidden;" version="1.1" xmlns="http://www.w3.org/2000/svg" xmlns:xlink="http://www.w3.org/1999/xlink">
<defs>
<symbol id="icon-add" viewBox="0 0 32 32">
<path d="M25.333 4h-18.667c-1.48 0-2.667 1.2-2.667 2.667v18.667c0 1.467 1.187 2.667 2.667 2.667h18.667c1.467 0 2.667-1.2 2.667-2.667v-18.667c0-1.467-1.2-2.667-2.667-2.667zM25.333 25.333h-18.667v-18.667h18.667v18.667zM14.667 22.667h2.667v-5.333h5.333v-2.667h-5.333v-5.333h-2.667v5.333h-5.333v2.667h5.333v5.333z"></path>
</symbol>
<symbol id="icon-search" viewBox="0 0 32 32">
<path d="M20.667 18.667h-1.053l-0.373-0.36c1.307-1.52 2.093-3.493 2.093-5.64 0-4.787-3.88-8.667-8.667-8.667s-8.667 3.88-8.667 8.667c0 4.787 3.88 8.667 8.667 8.667 2.147 0 4.12-0.787 5.64-2.093l0.36 0.373v1.053l6.667 6.653 1.987-1.987-6.653-6.667zM12.667 18.667c-3.32 0-6-2.68-6-6s2.68-6 6-6c3.32 0 6 2.68 6 6s-2.68 6-6 6z"></path>
</symbol>
<symbol id="icon-account_circle" viewBox="0 0 32 32">
<path d="M16 2.667c-7.36 0-13.333 5.973-13.333 13.333s5.973 13.333 13.333 13.333c7.36 0 13.333-5.973 13.333-13.333s-5.973-13.333-13.333-13.333zM9.427 24.373c0.573-1.2 4.067-2.373 6.573-2.373s6.013 1.173 6.573 2.373c-1.813 1.44-4.093 2.293-6.573 2.293s-4.76-0.853-6.573-2.293zM24.48 22.44c-1.907-2.32-6.533-3.107-8.48-3.107s-6.573 0.787-8.48 3.107c-1.36-1.787-2.187-4.013-2.187-6.44 0-5.88 4.787-10.667 10.667-10.667s10.667 4.787 10.667 10.667c0 2.427-0.827 4.653-2.187 6.44zM16 8c-2.587 0-4.667 2.080-4.667 4.667s2.080 4.667 4.667 4.667c2.587 0 4.667-2.080 4.667-4.667s-2.080-4.667-4.667-4.667zM16 14.667c-1.107 0-2-0.893-2-2s0.893-2 2-2c1.107 0 2 0.893 2 2s-0.893 2-2 2z"></path>
</symbol>
<symbol id="icon-cell" viewBox="0 0 32 32">
<path d="M22.667 1.347l-13.333-0.013c-1.467 0-2.653 1.2-2.653 2.667v24c0 1.467 1.187 2.667 2.653 2.667h13.333c1.467 0 2.667-1.2 2.667-2.667v-24c0-1.467-1.2-2.653-2.667-2.653zM22.667 25.333h-13.333v-18.667h13.333v18.667z"></path>
</symbol>
<symbol id="icon-no_cell" viewBox="0 0 32 32">
<path d="M22.667 8v10.893l2.667 2.667v-17.56c0-1.467-1.2-2.653-2.667-2.653l-13.333-0.013c-1.133 0-2.107 0.733-2.493 1.733l4.933 4.933h10.893zM9.334 4h13.333v1.333h-13.333v-1.333zM28.253 28.253l-24.507-24.507-1.893 1.88 4.813 4.813v17.56c0 1.467 1.2 2.667 2.667 2.667h13.333c1.133 0 2.107-0.733 2.493-1.733l1.213 1.213 1.88-1.893zM22.667 28h-13.333v-1.333h13.333v1.333zM9.334 24v-10.893l10.893 10.893h-10.893z"></path>
</symbol>
<symbol id="icon-add_ic_call" viewBox="0 0 32 32">
<path d="M26.667 20.6c-1.667 0-3.267-0.267-4.76-0.76-0.133-0.040-0.28-0.067-0.413-0.067-0.347 0-0.68 0.133-0.947 0.387l-2.933 2.933c-3.773-1.92-6.867-5-8.787-8.787l2.933-2.947c0.373-0.347 0.48-0.867 0.333-1.333-0.493-1.493-0.76-3.093-0.76-4.76 0-0.733-0.6-1.333-1.333-1.333h-4.667c-0.733 0-1.333 0.6-1.333 1.333 0 12.52 10.147 22.667 22.667 22.667 0.733 0 1.333-0.6 1.333-1.333v-4.667c0-0.733-0.6-1.333-1.333-1.333zM6.707 6.6h2c0.093 1.173 0.293 2.333 0.6 3.44l-1.6 1.613c-0.533-1.613-0.88-3.293-1-5.053zM25.333 25.227c-1.76-0.12-3.467-0.467-5.067-1.013l1.6-1.6c1.133 0.32 2.293 0.52 3.467 0.6v2.013zM24 7.933v-4h-2.667v4h-4v2.667h4v4h2.667v-4h4v-2.667h-4z"></path>
</symbol>
<symbol id="icon-face" viewBox="0 0 32 32">
<path d="M13.667 17.333c0 0.92-0.747 1.667-1.667 1.667s-1.667-0.747-1.667-1.667c0-0.92 0.747-1.667 1.667-1.667s1.667 0.747 1.667 1.667zM20 15.667c-0.92 0-1.667 0.747-1.667 1.667s0.747 1.667 1.667 1.667c0.92 0 1.667-0.747 1.667-1.667s-0.747-1.667-1.667-1.667zM29.333 16c0 7.36-5.973 13.333-13.333 13.333s-13.333-5.973-13.333-13.333c0-7.36 5.973-13.333 13.333-13.333s13.333 5.973 13.333 13.333zM14.213 5.493c1.867 3.093 5.253 5.173 9.12 5.173 0.613 0 1.213-0.067 1.787-0.16-1.867-3.093-5.253-5.173-9.12-5.173-0.613 0-1.213 0.067-1.787 0.16zM5.893 12.627c2.28-1.293 4.040-3.4 4.88-5.92-2.28 1.293-4.040 3.4-4.88 5.92zM26.667 16c0-1.040-0.16-2.040-0.44-2.987-0.933 0.2-1.893 0.32-2.893 0.32-4.173 0-7.893-1.92-10.347-4.92-1.4 3.413-4.187 6.093-7.653 7.4 0.013 0.053 0 0.12 0 0.187 0 5.88 4.787 10.667 10.667 10.667s10.667-4.787 10.667-10.667z"></path>
</symbol>
<symbol id="icon-delete" viewBox="0 0 32 32">
<path d="M21.333 12v13.333h-10.667v-13.333h10.667zM19.333 4h-6.667l-1.333 1.333h-4.667v2.667h18.667v-2.667h-4.667l-1.333-1.333zM24 9.333h-16v16c0 1.467 1.2 2.667 2.667 2.667h10.667c1.467 0 2.667-1.2 2.667-2.667v-16z"></path>
</symbol>
<symbol id="icon-contacts" viewBox="0 0 32 32">
<path d="M28 6.667c-1.48-0.467-3.107-0.667-4.667-0.667-2.6 0-5.4 0.533-7.333 2-1.933-1.467-4.733-2-7.333-2s-5.4 0.533-7.333 2v19.533c0 0.333 0.333 0.667 0.667 0.667 0.133 0 0.2-0.067 0.333-0.067 1.8-0.867 4.4-1.467 6.333-1.467 2.6 0 5.4 0.533 7.333 2 1.8-1.133 5.067-2 7.333-2 2.2 0 4.467 0.4 6.333 1.4 0.133 0.067 0.2 0.067 0.333 0.067 0.333 0 0.667-0.333 0.667-0.667v-19.467c-0.8-0.6-1.667-1-2.667-1.333zM28 24.667c-1.467-0.467-3.067-0.667-4.667-0.667-2.267 0-5.533 0.867-7.333 2v-15.333c1.8-1.133 5.067-2 7.333-2 1.6 0 3.2 0.2 4.667 0.667v15.333z"></path>
</symbol>
<symbol id="icon-call" viewBox="0 0 32 32">
<path d="M8.72 6.667c0.080 1.187 0.28 2.347 0.6 3.453l-1.6 1.6c-0.547-1.6-0.893-3.293-1.013-5.053h2.013zM21.867 22.693c1.133 0.32 2.293 0.52 3.467 0.6v1.987c-1.76-0.12-3.453-0.467-5.067-1l1.6-1.587zM10 4h-4.667c-0.733 0-1.333 0.6-1.333 1.333 0 12.52 10.147 22.667 22.667 22.667 0.733 0 1.333-0.6 1.333-1.333v-4.653c0-0.733-0.6-1.333-1.333-1.333-1.653 0-3.267-0.267-4.76-0.76-0.133-0.053-0.28-0.067-0.413-0.067-0.347 0-0.68 0.133-0.947 0.387l-2.933 2.933c-3.773-1.933-6.867-5.013-8.787-8.787l2.933-2.933c0.373-0.373 0.48-0.893 0.333-1.36-0.493-1.493-0.76-3.093-0.76-4.76 0-0.733-0.6-1.333-1.333-1.333z"></path>
</symbol>
<symbol id="icon-person_add" viewBox="0 0 32 32">
<path d="M17.333 10.667c0-2.947-2.387-5.333-5.333-5.333s-5.333 2.387-5.333 5.333c0 2.947 2.387 5.333 5.333 5.333s5.333-2.387 5.333-5.333zM14.667 10.667c0 1.467-1.2 2.667-2.667 2.667s-2.667-1.2-2.667-2.667c0-1.467 1.2-2.667 2.667-2.667s2.667 1.2 2.667 2.667zM1.333 24v2.667h21.333v-2.667c0-3.547-7.107-5.333-10.667-5.333s-10.667 1.787-10.667 5.333zM4 24c0.267-0.947 4.4-2.667 8-2.667 3.587 0 7.707 1.707 8 2.667h-16zM26.667 20v-4h4v-2.667h-4v-4h-2.667v4h-4v2.667h4v4h2.667z"></path>
</symbol>
<symbol id="icon-logout" viewBox="0 0 32 32">
<path d="M20.8 11.2l1.867-1.867 6.667 6.667-6.667 6.667-1.867-1.867 3.467-3.467h-13.6v-2.667h13.6l-3.467-3.467z"></path>
<path d="M16 4v2.667h-10.667v18.667h10.667v2.667h-10.667c-1.467 0-2.667-1.2-2.667-2.667v-18.667c0-1.467 1.2-2.667 2.667-2.667h10.667z"></path>
</symbol>
<symbol id="icon-login" viewBox="0 0 32 32">
<path d="M14.667 9.333l-1.867 1.867 3.467 3.467h-13.6v2.667h13.6l-3.467 3.467 1.867 1.867 6.667-6.667-6.667-6.667zM26.667 25.333h-10.667v2.667h10.667c1.467 0 2.667-1.2 2.667-2.667v-18.667c0-1.467-1.2-2.667-2.667-2.667h-10.667v2.667h10.667v18.667z"></path>
</symbol>
<symbol id="icon-people" viewBox="0 0 32 32">
<path d="M22.227 17.507c1.827 1.24 3.107 2.92 3.107 5.16v4h5.333v-4c0-2.907-4.76-4.627-8.44-5.16z"></path>
<path d="M20 16c2.947 0 5.333-2.387 5.333-5.333s-2.387-5.333-5.333-5.333c-0.627 0-1.213 0.133-1.773 0.32 1.107 1.373 1.773 3.12 1.773 5.013s-0.667 3.64-1.773 5.013c0.56 0.187 1.147 0.32 1.773 0.32z"></path>
<path d="M12 16c2.947 0 5.333-2.387 5.333-5.333s-2.387-5.333-5.333-5.333c-2.947 0-5.333 2.387-5.333 5.333s2.387 5.333 5.333 5.333zM12 8c1.467 0 2.667 1.2 2.667 2.667s-1.2 2.667-2.667 2.667c-1.467 0-2.667-1.2-2.667-2.667s1.2-2.667 2.667-2.667z"></path>
<path d="M12 17.333c-3.56 0-10.667 1.787-10.667 5.333v4h21.333v-4c0-3.547-7.107-5.333-10.667-5.333zM20 24h-16v-1.32c0.267-0.96 4.4-2.68 8-2.68s7.733 1.72 8 2.667v1.333z"></path>
</symbol>
<symbol id="icon-spinner" viewBox="0 0 32 32">
<path d="M16 9.472c-1.030 0-1.865-0.835-1.865-1.865v-5.596c0-1.030 0.835-1.865 1.865-1.865s1.865 0.835 1.865 1.865v5.596c0 1.030-0.835 1.865-1.865 1.865z"></path>
<path d="M16 31.155c-0.644 0-1.166-0.522-1.166-1.166v-5.596c0-0.644 0.522-1.166 1.166-1.166s1.166 0.522 1.166 1.166v5.596c0 0.644-0.522 1.166-1.166 1.166z"></path>
<path d="M11.805 10.48c-0.604 0-1.192-0.314-1.516-0.875l-2.798-4.846c-0.483-0.836-0.196-1.906 0.64-2.389s1.906-0.196 2.389 0.64l2.798 4.846c0.483 0.836 0.196 1.906-0.64 2.389-0.275 0.159-0.576 0.235-0.873 0.235z"></path>
<path d="M22.995 29.164c-0.363 0-0.715-0.188-0.91-0.525l-2.798-4.846c-0.29-0.502-0.118-1.143 0.384-1.433s1.143-0.118 1.433 0.384l2.798 4.846c0.29 0.502 0.118 1.143-0.384 1.433-0.165 0.095-0.346 0.141-0.524 0.141z"></path>
<path d="M8.729 13.436c-0.277 0-0.557-0.070-0.814-0.219l-4.846-2.798c-0.781-0.451-1.048-1.449-0.597-2.229s1.449-1.048 2.229-0.597l4.846 2.798c0.781 0.451 1.048 1.449 0.597 2.229-0.302 0.524-0.851 0.816-1.415 0.816z"></path>
<path d="M28.114 23.927c-0.158 0-0.319-0.040-0.465-0.125l-4.846-2.798c-0.446-0.258-0.599-0.828-0.341-1.274s0.828-0.599 1.274-0.341l4.846 2.798c0.446 0.258 0.599 0.828 0.341 1.274-0.173 0.299-0.486 0.466-0.809 0.466z"></path>
<path d="M7.607 17.515h-5.596c-0.837 0-1.516-0.678-1.516-1.515s0.678-1.515 1.516-1.515h5.596c0.837 0 1.516 0.678 1.516 1.515s-0.678 1.515-1.516 1.515z"></path>
<path d="M29.989 16.933c-0 0 0 0 0 0h-5.596c-0.515-0-0.933-0.418-0.933-0.933s0.418-0.933 0.933-0.933c0 0 0 0 0 0h5.596c0.515 0 0.933 0.418 0.933 0.933s-0.418 0.933-0.933 0.933z"></path>
<path d="M3.886 24.394c-0.483 0-0.954-0.251-1.213-0.7-0.386-0.669-0.157-1.525 0.512-1.911l4.846-2.798c0.669-0.387 1.525-0.157 1.911 0.512s0.157 1.525-0.512 1.911l-4.846 2.798c-0.22 0.127-0.461 0.188-0.698 0.188z"></path>
<path d="M23.27 12.736c-0.322 0-0.636-0.167-0.809-0.466-0.258-0.446-0.105-1.016 0.341-1.274l4.846-2.798c0.446-0.257 1.016-0.105 1.274 0.341s0.105 1.016-0.341 1.274l-4.846 2.798c-0.147 0.085-0.307 0.125-0.465 0.125z"></path>
<path d="M9.004 29.397c-0.218 0-0.438-0.055-0.64-0.172-0.613-0.354-0.823-1.138-0.469-1.752l2.798-4.846c0.354-0.613 1.138-0.823 1.752-0.469s0.823 1.138 0.469 1.752l-2.798 4.846c-0.237 0.411-0.668 0.641-1.112 0.641z"></path>
<path d="M20.196 9.664c-0.158 0-0.319-0.040-0.465-0.125-0.446-0.258-0.599-0.828-0.341-1.274l2.798-4.846c0.258-0.446 0.828-0.599 1.274-0.341s0.599 0.828 0.341 1.274l-2.798 4.846c-0.173 0.299-0.486 0.466-0.809 0.466z"></path>
</symbol>
<symbol id="icon-mail" viewBox="0 0 32 32">
<path d="M29.333 8c0-1.467-1.2-2.667-2.667-2.667h-21.333c-1.467 0-2.667 1.2-2.667 2.667v16c0 1.467 1.2 2.667 2.667 2.667h21.333c1.467 0 2.667-1.2 2.667-2.667v-16zM26.667 8l-10.667 6.653-10.667-6.653h21.333zM26.667 24h-21.333v-13.333l10.667 6.667 10.667-6.667v13.333z"></path>
</symbol>
<symbol id="icon-delete_sweep" viewBox="0 0 32 32">
<path d="M20 21.333h5.333v2.667h-5.333v-2.667zM20 10.667h9.333v2.667h-9.333v-2.667zM20 16h8v2.667h-8v-2.667zM4 24c0 1.467 1.2 2.667 2.667 2.667h8c1.467 0 2.667-1.2 2.667-2.667v-13.333h-13.333v13.333zM6.667 13.333h8v10.667h-8v-10.667zM13.333 5.333h-5.333l-1.333 1.333h-4v2.667h16v-2.667h-4l-1.333-1.333z"></path>
</symbol>
<symbol id="icon-add-simple" viewBox="0 0 32 32">
<path d="M25.333 17.333h-8v8h-2.667v-8h-8v-2.667h8v-8h2.667v8h8v2.667z"></path>
</symbol>
<symbol id="icon-delete_forever" viewBox="0 0 32 32">
<path d="M18.827 13.96l-2.827 2.827-2.84-2.827-1.88 1.88 2.84 2.827-2.827 2.827 1.88 1.88 2.827-2.827 2.827 2.827 1.88-1.88-2.827-2.827 2.827-2.827-1.88-1.88zM20.667 5.333l-1.333-1.333h-6.667l-1.333 1.333h-4.667v2.667h18.667v-2.667h-4.667zM8 25.333c0 1.467 1.2 2.667 2.667 2.667h10.667c1.467 0 2.667-1.2 2.667-2.667v-16h-16v16zM10.667 12h10.667v13.333h-10.667v-13.333z"></path>
</symbol>
<symbol id="icon-restore" viewBox="0 0 32 32">
<path d="M20.667 5.333l-1.333-1.333h-6.667l-1.333 1.333h-4.667v2.667h18.667v-2.667h-4.667zM8 25.333c0 1.467 1.2 2.667 2.667 2.667h10.667c1.467 0 2.667-1.2 2.667-2.667v-16h-16v16zM10.667 18.667v-6.667h10.667v13.333h-10.667v-6.667zM13.333 24h5.333v-5.333h2.667l-5.333-5.333-5.333 5.333h2.667v5.333z"></path>
</symbol>
<symbol id="icon-perm_contact" viewBox="0 0 32 32">
<path d="M27.787 5.627c-0.067-0.16-0.147-0.307-0.24-0.453-0.187-0.28-0.44-0.533-0.72-0.72-0.147-0.093-0.293-0.173-0.453-0.24-0.32-0.133-0.667-0.213-1.040-0.213h-1.333v-2.667h-2.667v2.667h-10.667v-2.667h-2.667v2.667h-1.333c-0.56 0-1.067 0.173-1.493 0.453-0.28 0.187-0.533 0.44-0.72 0.72-0.093 0.147-0.173 0.293-0.24 0.453-0.133 0.32-0.213 0.667-0.213 1.040v18.667c0 1.467 1.187 2.667 2.667 2.667h18.667c0.373 0 0.72-0.080 1.040-0.213 0.16-0.067 0.307-0.147 0.453-0.24 0.28-0.187 0.533-0.44 0.72-0.72 0.28-0.427 0.453-0.947 0.453-1.493v-18.667c0-0.373-0.080-0.72-0.213-1.040zM6.667 25.333v-18.667h18.667v18.667h-18.667zM16 17.173c-2.707 0-8 1.44-8 4.773v2.053h16v-2.040c0-3.347-5.293-4.787-8-4.787zM11.080 21.333c0.92-0.747 3.173-1.493 4.92-1.493s4.013 0.747 4.92 1.493h-9.84zM16 16c2.2 0 4-1.8 4-4s-1.8-4-4-4c-2.2 0-4 1.8-4 4s1.8 4 4 4zM16 10.667c0.733 0 1.333 0.6 1.333 1.333s-0.6 1.333-1.333 1.333c-0.733 0-1.333-0.6-1.333-1.333s0.6-1.333 1.333-1.333z"></path>
</symbol>
<symbol id="icon-settings" viewBox="0 0 32 32">
<path d="M25.907 17.307c0.053-0.427 0.093-0.853 0.093-1.307s-0.040-0.88-0.093-1.307l2.813-2.2c0.253-0.2 0.32-0.56 0.16-0.853l-2.667-4.613c-0.12-0.213-0.347-0.333-0.587-0.333-0.080 0-0.16 0.013-0.227 0.040l-3.32 1.333c-0.693-0.533-1.44-0.973-2.253-1.307l-0.507-3.533c-0.040-0.32-0.32-0.56-0.653-0.56h-5.333c-0.333 0-0.613 0.24-0.653 0.56l-0.507 3.533c-0.813 0.333-1.56 0.787-2.253 1.307l-3.32-1.333c-0.080-0.027-0.16-0.040-0.24-0.040-0.227 0-0.453 0.12-0.573 0.333l-2.667 4.613c-0.173 0.293-0.093 0.653 0.16 0.853l2.813 2.2c-0.053 0.427-0.093 0.867-0.093 1.307s0.040 0.88 0.093 1.307l-2.813 2.2c-0.253 0.2-0.32 0.56-0.16 0.853l2.667 4.613c0.12 0.213 0.347 0.333 0.587 0.333 0.080 0 0.16-0.013 0.227-0.040l3.32-1.333c0.693 0.533 1.44 0.973 2.253 1.307l0.507 3.533c0.040 0.32 0.32 0.56 0.653 0.56h5.333c0.333 0 0.613-0.24 0.653-0.56l0.507-3.533c0.813-0.333 1.56-0.787 2.253-1.307l3.32 1.333c0.080 0.027 0.16 0.040 0.24 0.040 0.227 0 0.453-0.12 0.573-0.333l2.667-4.613c0.16-0.293 0.093-0.653-0.16-0.853l-2.813-2.2zM23.267 15.027c0.053 0.413 0.067 0.693 0.067 0.973s-0.027 0.573-0.067 0.973l-0.187 1.507 1.187 0.933 1.44 1.12-0.933 1.613-1.693-0.68-1.387-0.56-1.2 0.907c-0.573 0.427-1.12 0.747-1.667 0.973l-1.413 0.573-0.213 1.507-0.267 1.8h-1.867l-0.253-1.8-0.213-1.507-1.413-0.573c-0.573-0.24-1.107-0.547-1.64-0.947l-1.213-0.933-1.413 0.573-1.693 0.68-0.933-1.613 1.44-1.12 1.187-0.933-0.187-1.507c-0.040-0.413-0.067-0.72-0.067-0.987s0.027-0.573 0.067-0.973l0.187-1.507-1.187-0.933-1.44-1.12 0.933-1.613 1.693 0.68 1.387 0.56 1.2-0.907c0.573-0.427 1.12-0.747 1.667-0.973l1.413-0.573 0.213-1.507 0.267-1.8h1.853l0.253 1.8 0.213 1.507 1.413 0.573c0.573 0.24 1.107 0.547 1.64 0.947l1.213 0.933 1.413-0.573 1.693-0.68 0.933 1.613-1.427 1.133-1.187 0.933 0.187 1.507zM16 10.667c-2.947 0-5.333 2.387-5.333 5.333s2.387 5.333 5.333 5.333c2.947 0 5.333-2.387 5.333-5.333s-2.387-5.333-5.333-5.333zM16 18.667c-1.467 0-2.667-1.2-2.667-2.667s1.2-2.667 2.667-2.667c1.467 0 2.667 1.2 2.667 2.667s-1.2 2.667-2.667 2.667z"></path>
</symbol>
<symbol id="icon-not-found" viewBox="0 0 28 32">
<path d="M1.882 30.962l0.452-29.779 16.625-0.166 8.038 8.098-0.376 21.707-24.738 0.139zM16.885 11.491l0.779-8.512-13.154 0.286-0.602 25.543h20.536l0.376-17.216-7.936-0.102zM9.186 23.662c-0.166-0.169-1.544-1.062-1.818-1.355 2.872-4.111 10.997-5.063 13.854-0.44-0.376 0.184-1.95 1.129-2.259 1.34-1.272-2.616-6.889-2.801-9.777 0.456zM14.193 12.771l-1.242 1.197-2.364-2.229-2.635 1.852-1.367-1.758 2.394-1.592-1.928-1.83 1.882-1.626 1.939 2.206 2.741-1.826 1.096 1.66-2.458 1.736 1.943 2.21z"></path>
</symbol>
</defs>
</svg>
