<svg aria-hidden="true" style="position: absolute; width: 0; height: 0; overflow: hidden;" version="1.1" xmlns="http://www.w3.org/2000/svg" xmlns:xlink="http://www.w3.org/1999/xlink">
<defs>
<symbol id="icon-add" viewBox="0 0 32 32">
<path d="M25.333 4h-18.667c-1.48 0-2.667 1.2-2.667 2.667v18.667c0 1.467 1.187 2.667 2.667 2.667h18.667c1.467 0 2.667-1.2 2.667-2.667v-18.667c0-1.467-1.2-2.667-2.667-2.667zM25.333 25.333h-18.667v-18.667h18.667v18.667zM14.667 22.667h2.667v-5.333h5.333v-2.667h-5.333v-5.333h-2.667v5.333h-5.333v2.667h5.333v5.333z"></path>
</symbol>
<symbol id="icon-search" viewBox="0 0 32 32">
<path d="M20.667 18.667h-1.053l-0.373-0.36c1.307-1.52 2.093-3.493 2.093-5.64 0-4.787-3.88-8.667-8.667-8.667s-8.667 3.88-8.667 8.667c0 4.787 3.88 8.667 8.667 8.667 2.147 0 4.12-0.787 5.64-2.093l0.36 0.373v1.053l6.667 6.653 1.987-1.987-6.653-6.667zM12.667 18.667c-3.32 0-6-2.68-6-6s2.68-6 6-6c3.32 0 6 2.68 6 6s-2.68 6-6 6z"></path>
</symbol>
<symbol id="icon-account_circle" viewBox="0 0 32 32">
<path d="M16 2.667c-7.36 0-13.333 5.973-13.333 13.333s5.973 13.333 13.333 13.333c7.36 0 13.333-5.973 13.333-13.333s-5.973-13.333-13.333-13.333zM9.427 24.373c0.573-1.2 4.067-2.373 6.573-2.373s6.013 1.173 6.573 2.373c-1.813 1.44-4.093 2.293-6.573 2.293s-4.76-0.853-6.573-2.293zM24.48 22.44c-1.907-2.32-6.533-3.107-8.48-3.107s-6.573 0.787-8.48 3.107c-1.36-1.787-2.187-4.013-2.187-6.44 0-5.88 4.787-10.667 10.667-10.667s10.667 4.787 10.667 10.667c0 2.427-0.827 4.653-2.187 6.44zM16 8c-2.587 0-4.667 2.080-4.667 4.667s2.080 4.667 4.667 4.667c2.587 0 4.667-2.080 4.667-4.667s-2.080-4.667-4.667-4.667zM16 14.667c-1.107 0-2-0.893-2-2s0.893-2 2-2c1.107 0 2 0.893 2 2s-0.893 2-2 2z"></path>
</symbol>
<symbol id="icon-cell" viewBox="0 0 32 32">
<path d="M22.667 1.347l-13.333-0.013c-1.467 0-2.653 1.2-2.653 2.667v24c0 1.467 1.187 2.667 2.653 2.667h13.333c1.467 0 2.667-1.2 2.667-2.667v-24c0-1.467-1.2-2.653-2.667-2.653zM22.667 25.333h-13.333v-18.667h13.333v18.667z"></path>
</symbol>
<symbol id="icon-no_cell" viewBox="0 0 32 32">
<path d="M22.667 8v10.893l2.667 2.667v-17.56c0-1.467-1.2-2.653-2.667-2.653l-13.333-0.013c-1.133 0-2.107 0.733-2.493 1.733l4.933 4.933h10.893zM9.334 4h13.333v1.333h-13.333v-1.333zM28.253 28.253l-24.507-24.507-1.893 1.88 4.813 4.813v17.56c0 1.467 1.2 2.667 2.667 2.667h13.333c1.133 0 2.107-0.733 2.493-1.733l1.213 1.213 1.88-1.893zM22.667 28h-13.333v-1.333h13.333v1.333zM9.334 24v-10.893l10.893 10.893h-10.893z"></path>
</symbol>
<symbol id="icon-add_ic_call" viewBox="0 0 32 32">
<path d="M26.667 20.6c-1.667 0-3.267-0.267-4.76-0.76-0.133-0.040-0.28-0.067-0.413-0.067-0.347 0-0.68 0.133-0.947 0.387l-2.933 2.933c-3.773-1.92-6.867-5-8.787-8.787l2.933-2.947c0.373-0.347 0.48-0.867 0.333-1.333-0.493-1.493-0.76-3.093-0.76-4.76 0-0.733-0.6-1.333-1.333-1.333h-4.667c-0.733 0-1.333 0.6-1.333 1.333 0 12.52 10.147 22.667 22.667 22.667 0.733 0 1.333-0.6 1.333-1.333v-4.667c0-0.733-0.6-1.333-1.333-1.333zM6.707 6.6h2c0.093 1.173 0.293 2.333 0.6 3.44l-1.6 1.613c-0.533-1.613-0.88-3.293-1-5.053zM25.333 25.227c-1.76-0.12-3.467-0.467-5.067-1.013l1.6-1.6c1.133 0.32 2.293 0.52 3.467 0.6v2.013zM24 7.933v-4h-2.667v4h-4v2.667h4v4h2.667v-4h4v-2.667h-4z"></path>
</symbol>
<symbol id="icon-face" viewBox="0 0 32 32">
<path d="M13.667 17.333c0 0.92-0.747 1.667-1.667 1.667s-1.667-0.747-1.667-1.667c0-0.92 0.747-1.667 1.667-1.667s1.667 0.747 1.667 1.667zM20 15.667c-0.92 0-1.667 0.747-1.667 1.667s0.747 1.667 1.667 1.667c0.92 0 1.667-0.747 1.667-1.667s-0.747-1.667-1.667-1.667zM29.333 16c0 7.36-5.973 13.333-13.333 13.333s-13.333-5.973-13.333-13.333c0-7.36 5.973-13.333 13.333-13.333s13.333 5.973 13.333 13.333zM14.213 5.493c1.867 3.093 5.253 5.173 9.12 5.173 0.613 0 1.213-0.067 1.787-0.16-1.867-3.093-5.253-5.173-9.12-5.173-0.613 0-1.213 0.067-1.787 0.16zM5.893 12.627c2.28-1.293 4.040-3.4 4.88-5.92-2.28 1.293-4.040 3.4-4.88 5.92zM26.667 16c0-1.040-0.16-2.040-0.44-2.987-0.933 0.2-1.893 0.32-2.893 0.32-4.173 0-7.893-1.92-10.347-4.92-1.4 3.413-4.187 6.093-7.653 7.4 0.013 0.053 0 0.12 0 0.187 0 5.88 4.787 10.667 10.667 10.667s10.667-4.787 10.667-10.667z"></path>
</symbol>
<symbol id="icon-delete" viewBox="0 0 32 32">
<path d="M21.333 12v13.333h-10.667v-13.333h10.667zM19.333 4h-6.667l-1.333 1.333h-4.667v2.667h18.667v-2.667h-4.667l-1.333-1.333zM24 9.333h-16v16c0 1.467 1.2 2.667 2.667 2.667h10.667c1.467 0 2.667-1.2 2.667-2.667v-16z"></path>
</symbol>
<symbol id="icon-contacts" viewBox="0 0 32 32">
<path d="M28 6.667c-1.48-0.467-3.107-0.667-4.667-0.667-2.6 0-5.4 0.533-7.333 2-1.933-1.467-4.733-2-7.333-2s-5.4 0.533-7.333 2v19.533c0 0.333 0.333 0.667 0.667 0.667 0.133 0 0.2-0.067 0.333-0.067 1.8-0.867 4.4-1.467 6.333-1.467 2.6 0 5.4 0.533 7.333 2 1.8-1.133 5.067-2 7.333-2 2.2 0 4.467 0.4 6.333 1.4 0.133 0.067 0.2 0.067 0.333 0.067 0.333 0 0.667-0.333 0.667-0.667v-19.467c-0.8-0.6-1.667-1-2.667-1.333zM28 24.667c-1.467-0.467-3.067-0.667-4.667-0.667-2.267 0-5.533 0.867-7.333 2v-15.333c1.8-1.133 5.067-2 7.333-2 1.6 0 3.2 0.2 4.667 0.667v15.333z"></path>
</symbol>
<symbol id="icon-call" viewBox="0 0 32 32">
<path d="M8.72 6.667c0.080 1.187 0.28 2.347 0.6 3.453l-1.6 1.6c-0.547-1.6-0.893-3.293-1.013-5.053h2.013zM21.867 22.693c1.133 0.32 2.293 0.52 3.467 0.6v1.987c-1.76-0.12-3.453-0.467-5.067-1l1.6-1.587zM10 4h-4.667c-0.733 0-1.333 0.6-1.333 1.333 0 12.52 10.147 22.667 22.667 22.667 0.733 0 1.333-0.6 1.333-1.333v-4.653c0-0.733-0.6-1.333-1.333-1.333-1.653 0-3.267-0.267-4.76-0.76-0.133-0.053-0.28-0.067-0.413-0.067-0.347 0-0.68 0.133-0.947 0.387l-2.933 2.933c-3.773-1.933-6.867-5.013-8.787-8.787l2.933-2.933c0.373-0.373 0.48-0.893 0.333-1.36-0.493-1.493-0.76-3.093-0.76-4.76 0-0.733-0.6-1.333-1.333-1.333z"></path>
</symbol>
</defs>
</svg>
